HIERARCHY
ROOT hip
{
  OFFSET 0 0 0
  CHANNELS 6 Xposition Yposition Zposition Zrotation Yrotation Xrotation
  JOINT abdomen
  {
    OFFSET 0 20.6881 -0.73152
    CHANNELS 3 Zrotation Xrotation Yrotation
    JOINT chest
    {
      OFFSET 0 11.7043 -0.48768
      CHANNELS 3 Zrotation Xrotation Yrotation
      JOINT neck
      {
        OFFSET 0 22.1894 -2.19456
        CHANNELS 3 Zrotation Xrotation Yrotation
        JOINT head
        {
          OFFSET -0.24384 7.07133 1.2192
          CHANNELS 3 Zrotation Xrotation Yrotation
          JOINT leftEye
          {
            OFFSET 4.14528 8.04674 8.04672
            CHANNELS 3 Zrotation Xrotation Yrotation
            End Site
            {
              OFFSET 1 0 0
            }
          }
          JOINT rightEye
          {
            OFFSET -3.6576 8.04674 8.04672
            CHANNELS 3 Zrotation Xrotation Yrotation
            End Site
            {
              OFFSET 1 0 0
            }
          }
        }
      }
      JOINT rCollar
      {
        OFFSET -2.68224 19.2634 -4.8768
        CHANNELS 3 Zrotation Xrotation Yrotation
        JOINT rShldr
        {
          OFFSET -8.77824 -1.95073 1.46304
          CHANNELS 3 Zrotation Xrotation Yrotation
          JOINT rForeArm
          {
            OFFSET -28.1742 -1.7115 0.48768
            CHANNELS 3 Zrotation Xrotation Yrotation
            JOINT rHand
            {
              OFFSET -22.5879 0.773209 7.07136
              CHANNELS 3 Zrotation Xrotation Yrotation
              JOINT rThumb1
              {
                OFFSET -1.2192 -0.487915 3.41376
                CHANNELS 3 Zrotation Xrotation Yrotation
                JOINT rThumb2
                {
                  OFFSET -3.37035 -0.52449 3.41376
                  CHANNELS 3 Zrotation Xrotation Yrotation
                  End Site
                  {
                    OFFSET -1.78271 -1.18214 1.43049
                  }
                }
              }
              JOINT rIndex1
              {
                OFFSET -7.75947 0.938293 5.60832
                CHANNELS 3 Zrotation Xrotation Yrotation
                JOINT rIndex2
                {
                  OFFSET -2.54057 -0.884171 1.56538
                  CHANNELS 3 Zrotation Xrotation Yrotation
                  End Site
                  {
                    OFFSET -1.62519 -0.234802 1.16502
                  }
                }
              }
              JOINT rMid1
              {
                OFFSET -8.24714 1.18213 3.41376
                CHANNELS 3 Zrotation Xrotation Yrotation
                JOINT rMid2
                {
                  OFFSET -3.10165 -0.590103 1.0647
                  CHANNELS 3 Zrotation Xrotation Yrotation
                  End Site
                  {
                    OFFSET -2.48547 -0.328903 0.83742
                  }
                }
              }
              JOINT rRing1
              {
                OFFSET -8.82822 0.546677 1.51678
                CHANNELS 3 Zrotation Xrotation Yrotation
                JOINT rRing2
                {
                  OFFSET -2.60934 -0.819778 -0.0198488
                  CHANNELS 3 Zrotation Xrotation Yrotation
                  End Site
                  {
                    OFFSET -2.33842 -0.294052 0.168128
                  }
                }
              }
              JOINT rPinky1
              {
                OFFSET -8.27202 -0.0477905 -0.4584
                CHANNELS 3 Zrotation Xrotation Yrotation
                JOINT rPinky2
                {
                  OFFSET -1.82734 -0.647385 -0.700984
                  CHANNELS 3 Zrotation Xrotation Yrotation
                  End Site
                  {
                    OFFSET -1.69225 -0.51767 -0.607171
                  }
                }
              }
            }
          }
        }
      }
      JOINT lCollar
      {
        OFFSET 2.68224 19.2634 -4.8768
        CHANNELS 3 Zrotation Xrotation Yrotation
        JOINT lShldr
        {
          OFFSET 8.77824 -1.95073 1.46304
          CHANNELS 3 Zrotation Xrotation Yrotation
          JOINT lForeArm
          {
            OFFSET 28.1742 -1.7115 0.48768
            CHANNELS 3 Zrotation Xrotation Yrotation
            JOINT lHand
            {
              OFFSET 22.5879 0.773209 7.07136
              CHANNELS 3 Zrotation Xrotation Yrotation
              JOINT lThumb1
              {
                OFFSET 1.2192 -0.487915 3.41376
                CHANNELS 3 Zrotation Xrotation Yrotation
                JOINT lThumb2
                {
                  OFFSET 3.37035 -0.52449 3.41376
                  CHANNELS 3 Zrotation Xrotation Yrotation
                  End Site
                  {
                    OFFSET 1.78271 -1.18214 1.43049
                  }
                }
              }
              JOINT lIndex1
              {
                OFFSET 7.75947 0.938293 5.60832
                CHANNELS 3 Zrotation Xrotation Yrotation
                JOINT lIndex2
                {
                  OFFSET 2.54057 -0.884171 1.56538
                  CHANNELS 3 Zrotation Xrotation Yrotation
                  End Site
                  {
                    OFFSET 1.62519 -0.234802 1.16502
                  }
                }
              }
              JOINT lMid1
              {
                OFFSET 8.24714 1.18213 3.41376
                CHANNELS 3 Zrotation Xrotation Yrotation
                JOINT lMid2
                {
                  OFFSET 3.10165 -0.590103 1.0647
                  CHANNELS 3 Zrotation Xrotation Yrotation
                  End Site
                  {
                    OFFSET 2.48547 -0.328903 0.83742
                  }
                }
              }
              JOINT lRing1
              {
                OFFSET 8.82822 0.546677 1.51678
                CHANNELS 3 Zrotation Xrotation Yrotation
                JOINT lRing2
                {
                  OFFSET 2.60934 -0.819778 -0.0198488
                  CHANNELS 3 Zrotation Xrotation Yrotation
                  End Site
                  {
                    OFFSET 2.33842 -0.294052 0.168128
                  }
                }
              }
              JOINT lPinky1
              {
                OFFSET 8.27202 -0.0477905 -0.4584
                CHANNELS 3 Zrotation Xrotation Yrotation
                JOINT lPinky2
                {
                  OFFSET 1.82734 -0.647385 -0.700984
                  CHANNELS 3 Zrotation Xrotation Yrotation
                  End Site
                  {
                    OFFSET 1.69225 -0.51767 -0.607171
                  }
                }
              }
            }
          }
        }
      }
    }
  }
  JOINT rButtock
  {
    OFFSET -8.77824 4.35084 1.2192
    CHANNELS 3 Zrotation Xrotation Yrotation
    JOINT rThigh
    {
      OFFSET 0 -1.70687 -2.19456
      CHANNELS 3 Zrotation Xrotation Yrotation
      JOINT rShin
      {
        OFFSET 0 -36.8199 0.73152
        CHANNELS 3 Zrotation Xrotation Yrotation
        JOINT rFoot
        {
          OFFSET 0.73152 -45.1104 -5.12064
          CHANNELS 3 Zrotation Xrotation Yrotation
          End Site
          {
            OFFSET -1.1221 -3.69964 12.103
          }
        }
      }
    }
  }
  JOINT lButtock
  {
    OFFSET 8.77824 4.35084 1.2192
    CHANNELS 3 Zrotation Xrotation Yrotation
    JOINT lThigh
    {
      OFFSET 0 -1.70687 -2.19456
      CHANNELS 3 Zrotation Xrotation Yrotation
      JOINT lShin
      {
        OFFSET 0 -36.8199 0.73152
        CHANNELS 3 Zrotation Xrotation Yrotation
        JOINT lFoot
        {
          OFFSET -0.73152 -45.1104 -5.12064
          CHANNELS 3 Zrotation Xrotation Yrotation
          End Site
          {
            OFFSET 1.1221 -3.69964 12.103
          }
        }
      }
    }
  }
}
MOTION
Frames:	4
Frame Time:	0.03333
-0.01153070479631424 -4.176697880029678 -0.010125339031219482 -4.197968006134033 1.5182173252105713 6.533316135406494 -2.6837778091430664 13.846144676208496 3.843312978744507 2.581784725189209 -9.34264087677002 1.020076036453247 -5.498662948608398 15.258504867553711 -4.243199825286865 9.157485008239746 -24.332048416137695 -6.286049842834473 -0.07542015612125397 0.05448167771100998 0.022548777982592583 0.028402436524629593 -0.10098579525947571 0.013101293705403805 -0.010327053256332874 0.1364012211561203 0.20540767908096313 47.43311309814453 37.08852767944336 17.245040893554688 -27.21060562133789 -26.927343368530273 61.99333572387695 -0.2428029328584671 -9.266193389892578 -1.228829264640808 0.08631304651498795 0.06126462668180466 -0.0028389915823936462 -0.13428108394145966 -0.03354547172784805 -0.061346180737018585 -0.03662668913602829 -0.14768165349960327 -0.03296227380633354 7.875358581542969 5.350934982299805 0.38067400455474854 -0.015301343984901905 -0.06907637417316437 -0.15762822329998016 2.9133973121643066 1.1686354875564575 0.07416517287492752 -0.12766912579536438 0.002259745029732585 0.0184053722769022 10.393634796142578 0.8138064742088318 -0.0018384745344519615 -0.056146733462810516 0.06132160872220993 -0.009133840911090374 2.176806926727295 -0.5859852433204651 -0.19110682606697083 -0.10189830511808395 0.048526253551244736 0.04533837363123894 -54.89604568481445 41.269622802734375 -26.840944290161133 26.783447265625 -25.551361083984375 -60.011383056640625 0.26948902010917664 -13.005690574645996 1.7302647829055786 -0.011743339709937572 -0.006884981412440538 -0.11001654714345932 0.2210368812084198 0.04098969325423241 0.10102597624063492 -0.005929052829742432 0.07323673367500305 0.046466145664453506 -7.750924587249756 5.516368865966797 -0.5335366725921631 0.0057494062930345535 -0.09515031427145004 0.1152065172791481 -3.0070641040802 0.9211254715919495 -0.26805832982063293 -0.15326561033725739 0.0727587565779686 0.024345306679606438 -10.289355278015137 0.6520485877990723 -0.047066252678632736 0.11202726513147354 -0.14061789214611053 -0.07699889689683914 -2.1433515548706055 -0.8691840767860413 0.04685354605317116 0.054563969373703 -0.20757721364498138 0.116615429520607 -23.509254455566406 -38.8382682800293 -19.424602508544922 -1.515115737915039 63.17455291748047 2.527508497238159 -3.6165430545806885 -10.338254928588867 -10.109858512878418 0.15954294800758362 -0.12503677606582642 -0.06934385746717453 28.092544555664062 -37.68815612792969 20.97165298461914 1.6541224718093872 63.709598541259766 -3.0607173442840576 4.457003593444824 -10.618081092834473 14.58615493774414
-0.02899840474128723 -4.1822634637355804 -0.014418642967939377 -3.7877047061920166 1.310261845588684 6.975088119506836 -2.7098259925842285 13.853816032409668 3.9905638694763184 2.5964224338531494 -9.391485214233398 0.9710923433303833 -5.544783115386963 15.444625854492188 -4.237207889556885 9.344239234924316 -24.424846649169922 -6.2089314460754395 -0.03008742444217205 0.08268976956605911 -0.007705419324338436 0.11090226471424103 -0.062320951372385025 0.09392377734184265 -0.07070554792881012 0.060763321816921234 0.21205511689186096 47.754310607910156 36.97399139404297 17.070558547973633 -27.090795516967773 -26.902719497680664 62.29432678222656 -0.24747537076473236 -9.497337341308594 -1.2467719316482544 0.07261065393686295 -0.04368581250309944 -0.040051691234111786 -0.13459648191928864 -0.050964657217264175 -0.013482256792485714 -0.03619284927845001 -0.2179180234670639 -0.04921407997608185 7.929792881011963 5.349080562591553 0.389615923166275 0.048312246799468994 0.004368247464299202 -0.12947259843349457 2.8044545650482178 1.264667272567749 0.0709405317902565 -0.11458467692136765 -0.0032287524081766605 0.007224721368402243 10.389775276184082 0.8260923624038696 -0.0296720452606678 0.016548387706279755 0.13078081607818604 -0.02827572450041771 2.1156113147735596 -0.5558604598045349 -0.20285606384277344 -0.059780221432447433 0.02278926782310009 0.08591189980506897 -54.97529602050781 41.48974609375 -26.908340454101562 26.752674102783203 -25.60526466369629 -60.222503662109375 0.343839168548584 -13.123923301696777 1.5983389616012573 0.03483620285987854 0.08213836699724197 -0.11744992434978485 0.27841058373451233 0.044935040175914764 0.1277638077735901 -0.026674451306462288 0.06316688656806946 0.1231282502412796 -7.78274393081665 5.523292541503906 -0.5937951803207397 0.008916633203625679 -0.05379331111907959 0.09008035808801651 -2.9779906272888184 0.9911420345306396 -0.2571001946926117 -0.19100190699100494 0.05738605931401253 0.05994299799203873 -10.296201705932617 0.6598771214485168 -0.05817433074116707 0.11614280939102173 -0.17131328582763672 -0.08464445173740387 -2.0542101860046387 -0.8509271144866943 -0.0027089775539934635 0.0707608312368393 -0.22176238894462585 0.07043677568435669 -23.883272171020508 -38.797515869140625 -19.73525619506836 -1.5114632844924927 63.22364807128906 2.5764400959014893 -3.5335240364074707 -10.232277870178223 -10.192802429199219 0.1363242119550705 -0.10112403333187103 -0.07422247529029846 28.13361167907715 -37.635406494140625 21.031774520874023 1.7898492813110352 63.867488861083984 -3.1681177616119385 4.412808418273926 -10.506426811218262 14.621224403381348
-0.013562105596065521 -3.9589371532201767 -0.03474978730082512 -30.768802642822266 76.61135864257812 -21.466827392578125 0.013080771081149578 21.03824234008789 -3.10548996925354 7.255566120147705 -10.886262893676758 -0.8932834267616272 -9.444361686706543 22.778711318969727 -14.952499389648438 20.663745880126953 -28.34165382385254 -26.019296646118164 -0.16992709040641785 -0.10559777915477753 0.15608780086040497 0.013636400923132896 0.12978579103946686 -0.04527423158288002 0.020986303687095642 0.33034181594848633 0.354979544878006 54.36139678955078 20.04273223876953 0.0954776257276535 -28.075103759765625 -42.09010314941406 87.20640563964844 -0.35472437739372253 -8.420857429504395 -1.148290753364563 0.04084399342536926 0.1066104918718338 0.02549702115356922 0.3075156509876251 0.3189212679862976 -0.20456454157829285 -0.03918342664837837 0.029763147234916687 0.17392602562904358 7.824557781219482 5.2292022705078125 0.2662443220615387 -0.06769514828920364 0.017079388722777367 0.24559248983860016 3.05470871925354 1.54581880569458 -0.14922267198562622 -0.12272252142429352 0.0075763678178191185 0.10023476928472519 11.125693321228027 0.7426301836967468 -0.11207681894302368 -0.1663011759519577 -0.1906273066997528 0.17506031692028046 2.357670545578003 -0.29517367482185364 -0.19272558391094208 -0.14071740210056305 -0.23766706883907318 0.1992998570203781 -53.70625686645508 59.25007629394531 -21.770936965942383 27.655546188354492 -41.520896911621094 -86.75245666503906 1.8640735149383545 -35.788352966308594 5.330020427703857 0.38927218317985535 0.08725108951330185 -0.15336699783802032 0.01640741527080536 -0.1700616329908371 0.24740833044052124 -0.07286699116230011 0.07174647599458694 0.11812343448400497 -7.925151824951172 5.352371692657471 -0.2978332042694092 -0.042093463242053986 -0.051471009850502014 0.04990633204579353 -3.083033561706543 0.8213574886322021 -0.24838554859161377 -0.21616743505001068 0.19057852029800415 0.45135748386383057 -10.30272388458252 0.5328680872917175 -0.2144312709569931 0.290177583694458 -0.05083858221769333 0.11105259507894516 -2.3352410793304443 -1.0876917839050293 -0.09602649509906769 -0.027177486568689346 -0.4354884922504425 0.022711066529154778 -47.692344665527344 -48.74727249145508 -43.055381774902344 -2.0485830307006836 72.651123046875 2.72257399559021 3.0272879600524902 -4.503697872161865 11.801477432250977 0.11196745932102203 -0.06280525773763657 -0.28620412945747375 49.131591796875 -44.90044021606445 38.77634048461914 18.116336822509766 86.55252075195312 -20.640670776367188 6.651238918304443 -21.756532669067383 13.56263542175293
-0.005288794636726379 -3.8598932325839996 -0.06391117349267006 -50.324832916259766 78.98284149169922 -5.74966287612915 0.9765887260437012 20.797283172607422 -4.292974948883057 8.690974235534668 -11.091485023498535 -0.6604138612747192 -9.987325668334961 24.47076416015625 -18.3162841796875 23.730388641357422 -31.53377914428711 -30.876182556152344 0.04641696438193321 -0.2747243046760559 0.046623144298791885 -0.14824995398521423 0.029688525944948196 -0.3306099772453308 0.2230970859527588 0.09508544206619263 0.4287436008453369 56.42875671386719 21.693227767944336 -3.2445735931396484 -27.336257934570312 -42.4211540222168 89.07564544677734 -0.1427733153104782 -8.885074615478516 -1.1738108396530151 -0.18072886765003204 -0.009760805405676365 0.03233976662158966 -0.36067476868629456 0.2809528112411499 -0.32899072766304016 -0.3190467059612274 -0.45952367782592773 -0.27291521430015564 7.602987766265869 5.262002944946289 0.4024174213409424 -0.43529418110847473 -0.08922437578439713 -0.1888454556465149 3.0162296295166016 1.293778896331787 -0.458026647567749 -0.18476130068302155 0.08232435584068298 0.0372781902551651 10.518078804016113 0.9439078569412231 -0.184343621134758 -0.1858975887298584 0.3482133746147156 -0.2424347996711731 2.2525765895843506 -0.34628593921661377 0.012728234753012657 -0.39630404114723206 -0.26136085391044617 0.22286169230937958 -54.798004150390625 59.2405891418457 -21.214595794677734 27.772226333618164 -41.27723693847656 -86.1562728881836 1.2173749208450317 -30.36035919189453 4.263368129730225 0.1284060925245285 -0.17808897793293 -0.5565772652626038 0.34911617636680603 0.07548757642507553 0.3916361927986145 0.3258017897605896 -0.34663546085357666 0.3454934060573578 -7.709477424621582 5.883881568908691 -0.12980876863002777 0.16767291724681854 -0.07498078793287277 0.11760855466127396 -3.2658915519714355 1.0422111749649048 -0.15063782036304474 -0.46713879704475403 -0.020473401993513107 0.21504424512386322 -10.266756057739258 0.7800408005714417 0.24127823114395142 0.3448382318019867 -0.25799471139907837 0.17246761918067932 -2.341231346130371 -1.2462387084960938 -0.008262915536761284 0.569684624671936 -0.5774967670440674 -0.07375912368297577 -48.169647216796875 -48.51627731323242 -44.478328704833984 -2.0285887718200684 71.19876098632812 2.6499876976013184 3.016125440597534 -4.4188361167907715 10.430740356445312 0.16340942680835724 -0.08765891939401627 -0.5671384334564209 54.783180236816406 -45.23688507080078 43.40943908691406 14.0464506149292 85.79708862304688 -16.430927276611328 7.174663543701172 -21.220439910888672 15.815247535705566
